<svg width="48" height="48" viewBox="0 0 48 48" fill="none" xmlns="http://www.w3.org/2000/svg">
  <path d="M9.204 20.994L11.085 37.02C11.145 37.53 11.67 37.992 12.216 37.992H34.974C35.514 37.992 36.048 37.527 36.105 37.02L37.986 20.994C38.028 20.634 37.815 20.394 37.41 20.394H9.78C9.378 20.394 9.162 20.634 9.204 20.994ZM6.027 21.369C5.76 19.092 7.479 17.199 9.78 17.199H37.41C39.711 17.199 41.43 19.089 41.16 21.369L39.282 37.389C39.033 39.519 37.128 41.19 34.974 41.19H12.216C10.059 41.19 8.157 39.525 7.905 37.392L6.03 21.369H6.027ZM12.399 14.799C11.9745 14.799 11.5674 14.6304 11.2673 14.3302C10.9671 14.0301 10.7985 13.623 10.7985 13.1985C10.7985 12.774 10.9671 12.3669 11.2673 12.0668C11.5674 11.7666 11.9745 11.598 12.399 11.598H34.791C35.2151 11.598 35.6218 11.7665 35.9217 12.0663C36.2215 12.3662 36.39 12.7729 36.39 13.197C36.39 13.6211 36.2215 14.0278 35.9217 14.3277C35.6218 14.6275 35.2151 14.796 34.791 14.796H12.399V14.799ZM16.398 9.198C15.9739 9.198 15.5672 9.02953 15.2673 8.72966C14.9675 8.42979 14.799 8.02308 14.799 7.599C14.799 7.17492 14.9675 6.76821 15.2673 6.46834C15.5672 6.16847 15.9739 6 16.398 6H30.792C31.2161 6 31.6228 6.16847 31.9227 6.46834C32.2225 6.76821 32.391 7.17492 32.391 7.599C32.391 8.02308 32.2225 8.42979 31.9227 8.72966C31.6228 9.02953 31.2161 9.198 30.792 9.198H16.398Z" fill="black"/>
</svg>
