<svg width="32" height="32" viewBox="0 0 32 32" fill="none" xmlns="http://www.w3.org/2000/svg">
  <path d="M13.8879 6.20799C15.9423 6.20799 17.8687 7.00799 19.3215 8.45439C20.7743 9.90719 21.5679 11.8336 21.5679 13.888C21.5679 15.9424 20.7679 17.8688 19.3215 19.3216C17.8751 20.7744 15.9423 21.568 13.8879 21.568C11.8335 21.568 9.90714 20.768 8.45434 19.3216C7.00794 17.8688 6.20794 15.9424 6.20794 13.888C6.20794 11.8336 7.00794 9.90719 8.45434 8.45439C9.90074 7.00159 11.8335 6.20799 13.8879 6.20799ZM13.8879 4.79999C11.5647 4.79999 9.23514 5.68959 7.46234 7.46239C3.91034 11.0144 3.91034 16.768 7.46234 20.3136C9.23514 22.0864 11.5647 22.976 13.8879 22.976C16.2111 22.976 18.5407 22.0864 20.3135 20.3136C23.8655 16.7616 23.8655 11.008 20.3135 7.46239C18.5407 5.68959 16.2111 4.79999 13.8879 4.79999Z" fill="#666666"/>
  <path d="M8.34562 13.7344C8.29442 13.7344 8.24322 13.728 8.19202 13.7152C7.81442 13.632 7.57122 13.2544 7.66082 12.8768C7.94882 11.6032 8.58882 10.4384 9.51682 9.51037C10.1376 8.88957 10.8544 8.40317 11.6544 8.05757C12.0128 7.90397 12.4288 8.06397 12.5824 8.42237C12.736 8.78077 12.576 9.19677 12.2176 9.35037C11.584 9.62557 11.0144 10.016 10.5216 10.5088C9.78562 11.2448 9.27362 12.1728 9.04322 13.1904C8.96002 13.5168 8.66562 13.7344 8.34562 13.7344Z" fill="#666666"/>
  <path d="M25.6895 26.688L19.3919 20.384C19.1167 20.1088 19.1167 19.6608 19.3919 19.3856C19.6671 19.1104 20.1151 19.1104 20.3903 19.3856L26.6943 25.6896C26.9695 25.9648 26.9695 26.4128 26.6943 26.688C26.4127 26.9632 25.9647 26.9632 25.6895 26.688Z" fill="#666666"/>
</svg>
