<svg width="48" height="48" viewBox="0 0 48 48" fill="none" xmlns="http://www.w3.org/2000/svg">
<path d="M38.2368 11.4816C38.8704 11.4816 39.3888 12 39.3888 12.6336V29.952C39.3888 30.5856 38.8704 31.104 38.2368 31.104H10.08C9.44641 31.104 8.92801 30.5856 8.92801 29.952V12.6336C8.92801 12 9.44641 11.4816 10.08 11.4816H38.2368ZM38.2368 9.36963H10.08C8.27521 9.36963 6.81601 10.8288 6.81601 12.6336V29.952C6.81601 31.7568 8.27521 33.216 10.08 33.216H38.2368C40.0416 33.216 41.5008 31.7568 41.5008 29.952V12.6336C41.5008 10.8288 40.0416 9.36963 38.2368 9.36963Z" fill="black"/>
<path d="M15.936 27.2544V20.1024C15.936 19.5168 16.4064 19.0464 16.992 19.0464C17.5776 19.0464 18.048 19.5168 18.048 20.1024V27.2544C18.048 27.84 17.5776 28.3104 16.992 28.3104C16.416 28.3104 15.936 27.84 15.936 27.2544ZM26.208 27.0624V17.3952C26.208 16.8096 26.6784 16.3392 27.264 16.3392C27.8496 16.3392 28.32 16.8096 28.32 17.3952V27.0624C28.32 27.648 27.8496 28.1184 27.264 28.1184C26.6784 28.1184 26.208 27.648 26.208 27.0624ZM7.87201 37.2576H40.4448C41.0304 37.2576 41.5008 37.728 41.5008 38.3136C41.5008 38.8992 41.0304 39.3696 40.4448 39.3696H7.87201C7.28641 39.3696 6.81601 38.8992 6.81601 38.3136C6.81601 37.728 7.28641 37.2576 7.87201 37.2576ZM31.3344 27.0624V20.7072C31.3344 20.1216 31.8048 19.6512 32.3904 19.6512C32.976 19.6512 33.4464 20.1216 33.4464 20.7072V27.0624C33.4464 27.648 32.976 28.1184 32.3904 28.1184C31.8144 28.1184 31.3344 27.648 31.3344 27.0624Z" fill="black"/>
<path d="M21.072 27.2448V22.7904C21.072 22.2048 21.5424 21.7344 22.128 21.7344C22.7136 21.7344 23.184 22.2048 23.184 22.7904V27.2448C23.184 27.8304 22.7136 28.3008 22.128 28.3008C21.5424 28.3008 21.072 27.8304 21.072 27.2448Z" fill="black"/>
</svg>
